<svg id="Capa_1" enable-background="new 0 0 511.475 511.475" height="512" viewBox="0 0 511.475 511.475" width="512" xmlns="http://www.w3.org/2000/svg"><g id="Outline_10_"><path d="m447.219 32.05-48.227 40.407-102.617-64.388-65.419 78.504-86.939-34.5-144.017 150.323 66.981 146.242 64.61-74.719 64.68 42.001-94.062 131.294 28.096 56.191h64.393l1.519-14.548 52.745-4.137-2.556-12.7 55.018-15.571-48.909-81.318 155.176-121.994 27.004-123.62 76.778-10.969zm-60.312 50.532-48.171 40.36-27.554-87.874zm-92.008-49.311 28.175 89.857-77.446-30.733zm-223.999 287.902-53.019-115.758 127.036-132.599 61.601 91.521zm70.595-58.707 83.869-96.991-59.678-88.665 157.553 62.521-118.212 164.39zm39.688 225.94h-41.607l-19.904-39.809 76.868-107.295zm16.618-14.718 11.491-110.076 21.627 107.479zm80.655-26.326-35.016 9.91-20.602-102.384zm-33.731-85.185-28.811-47.903 118.374-164.614 56.881 97.388zm152.992-133.66-53.108-90.928 89.318-74.834zm52.033-167.906 34.656 46.652-46.292 6.613z" fill="#000000"/></g></svg>