<svg height="681pt" viewBox="-21 -21 681.33235 681" width="681pt" xmlns="http://www.w3.org/2000/svg"><path d="m111.828125 463.554688c14.320313-.003907 28.515625-2.714844 41.828125-8 1.878906-.734376 3.605469-1.519532 5.4375-2.351563l.105469-.085937 55.304687-25.246094-23.882812 64.34375c-.691406 1.84375-1.332032 3.59375-1.882813 5.429687-17.132812 56.078125 13.417969 115.617188 68.964844 134.402344 12.132813 4.28125 24.90625 6.472656 37.78125 6.472656 46.601563.277344 88.5-28.367187 105.15625-71.894531 10.070313-26.886719 8.824219-56.699219-3.453125-82.652344-12.617188-26.894531-35.589844-47.539062-63.679688-57.21875-1.652343-.585937-3.199218-1.003906-4.847656-1.492187l22.167969-59.679688 229.195313-104.628906c1.804687-.8125 3.507812-1.828125 5.089843-3.019531 20.089844-15.324219 50.726563-58.242188 53.554688-95.832032.722656-9.1875-3.515625-18.066406-11.121094-23.273437-7.769531-5.496094-17.878906-6.425781-26.515625-2.4375l-198.804688 90.835937 70.988282-191.144531c3.359375-8.929687 1.675781-18.976562-4.40625-26.328125-5.828125-7.238281-15.085938-10.800781-24.257813-9.339844-37.925781 5.960938-79.101562 39.542969-93.046875 60.523438-1.152344 1.734375-2.09375 3.601562-2.804687 5.554688l-82.808594 222.964843-50.980469 23.28125c-.667968-1.589843-1.277344-3.199219-2.042968-4.761719-27.175782-54.703124-92.886719-77.929687-148.402344-52.453124-27.019532 12.109374-47.96875 34.667968-58.050782 62.507812-9.84375 27.011719-8.304687 56.867188 4.261719 82.730469 18.882813 38.597656 58.183594 62.992187 101.152344 62.792969zm498.066406-307.722657c1.785157-.808593 3.875-.609375 5.480469.523438 1.445312.914062 2.261719 2.554687 2.132812 4.253906-2.261718 29.816406-28.304687 67.550781-45.269531 80.488281-.3125.226563-.652343.421875-1.007812.574219l-209.871094 95.832031 30.460937-81.988281zm-241.238281-81.894531c.140625-.414062.328125-.816406.5625-1.191406 11.804688-17.730469 48.320312-46.523438 78.644531-51.289063 1.699219-.246093 3.398438.433594 4.460938 1.777344 1.25 1.515625 1.597656 3.582031.925781 5.429687l-148.695312 400.453126c-.074219.332031-.128907.667968-.160157 1.011718-.148437.320313-.269531.652344-.371093.988282-.023438.355468-.023438.710937 0 1.066406-.089844 1.371094.097656 2.746094.539062 4.046875.230469.648437.519531 1.277343.863281 1.875.332031.566406.71875 1.101562 1.152344 1.59375.441406.519531.941406.984375 1.480469 1.394531.554687.414062 1.15625.777344 1.789062 1.066406.296875.214844.609375.40625.9375.578125.347656.078125.703125.125 1.0625.160157.316406.144531.648438.265624.976563.371093 4.648437.769531 9.207031 1.957031 13.644531 3.542969 22.6875 7.808594 41.25 24.46875 51.460938 46.183594 9.8125 20.773437 10.796874 44.636718 2.734374 66.152344-17.941406 46.109374-69.34375 69.527343-115.914062 52.816406-44.71875-15.023438-69.398438-62.867188-55.707031-108.011719.460937-1.472656.957031-2.832031 1.503906-4.261719v-.0625zm-342.214844 251.386719c8.15625-22.441407 25.058594-40.613281 46.851563-50.367188 44.964843-20.734375 98.269531-2.003906 120.375 42.304688 2 4.101562 3.621093 8.378906 4.84375 12.777343.085937.308594.308593.53125.414062.832032.105469.296875.0625.53125.179688.789062.285156.503906.601562.992188.949219 1.457032.175781.3125.371093.609374.585937.894531.761719.925781 1.671875 1.71875 2.707031 2.332031.242188.125.496094.242188.753906.339844.855469.429687 1.761719.738281 2.695313.917968.351563.074219.707031.125 1.0625.15625.3125 0 .59375.128907.898437.128907.394532-.0625.789063-.148438 1.179688-.257813.527344.007813 1.046875-.023437 1.5625-.089844.332031-.097656.566406-.324218.875-.441406.265625-.042968.53125-.105468.789062-.179687l42.195313-19.261719-30.464844 82.042969-74.710937 34.070312-.078125.066407c-1.421875.648437-2.769531 1.277343-4.308594 1.871093-44.261719 17.792969-94.757813-1.445312-115.957031-44.179687-10.050782-20.695313-11.273438-44.585938-3.398438-66.203125zm0 0"/><path d="m111.945312 425.414062c10.109376-.011718 20.097657-2.242187 29.25-6.542968 31.96875-14.976563 47.542969-51.621094 36.132813-85.035156-11.40625-33.410157-46.140625-52.882813-80.59375-45.175782-34.457031 7.699219-57.59375 40.105469-53.691406 75.191406 3.90625 35.089844 33.59375 61.621094 68.902343 61.5625zm-20.457031-112.601562c23.960938-11.230469 52.492188-.910156 63.722657 23.054688 11.226562 23.960937.910156 52.484374-23.050782 63.71875-23.960937 11.230468-52.492187.910156-63.722656-23.046876-5.441406-11.5-6.070312-24.699218-1.742188-36.667968 4.328126-11.960938 13.25-21.703125 24.792969-27.058594zm0 0"/><path d="m272.164062 593.0625c7.496094 2.652344 15.390626 4 23.339844 4 28.855469.160156 54.785156-17.585938 65.089844-44.535156 6.253906-16.683594 5.484375-35.1875-2.132812-51.289063-7.808594-16.65625-22.015626-29.441406-39.394532-35.460937-35.609375-12.6875-74.84375 5.296875-88.472656 40.558594-6.234375 16.679687-5.46875 35.171874 2.128906 51.28125 7.824219 16.65625 22.046875 29.4375 39.441406 35.445312zm-21.605468-79.273438c7.175781-18.605468 25.121094-30.824218 45.0625-30.675781 5.570312 0 11.101562.953125 16.355468 2.808594 11.992188 4.125 21.804688 12.921875 27.203126 24.394531 5.175781 10.9375 5.699218 23.507813 1.449218 34.839844-9.523437 24.402344-36.761718 36.761719-61.394531 27.867188-12-4.113282-21.824219-12.921876-27.21875-24.40625-5.175781-10.9375-5.703125-23.5-1.457031-34.828126zm0 0"/><path d="m304.195312 339.480469c5.410157 1.964843 11.390626-.8125 13.382813-6.210938.941406-2.59375.804687-5.453125-.371094-7.945312-1.179687-2.492188-3.304687-4.40625-5.902343-5.324219-5.414063-1.964844-11.390626.8125-13.382813 6.214844-.941406 2.59375-.808594 5.449218.367187 7.945312 1.175782 2.488282 3.300782 4.40625 5.90625 5.320313zm0 0"/><path d="m418.25 281.035156c1.246094 2.539063 3.449219 4.476563 6.125 5.386719 2.671875.90625 5.597656.722656 8.132812-.527344l65.003907-31.945312c3.5-1.628907 5.847656-5.023438 6.128906-8.871094.28125-3.851563-1.539063-7.550781-4.761719-9.675781-3.222656-2.117188-7.339844-2.332032-10.769531-.554688l-64.953125 31.945313c-2.539062 1.234375-4.484375 3.433593-5.402344 6.101562-.921875 2.675781-.742187 5.601563.496094 8.140625zm0 0"/><path d="m536.164062 233.75c1.625.007812 3.222657-.355469 4.6875-1.066406l21.667969-10.644532c3.496094-1.628906 5.839844-5.027343 6.121094-8.871093.285156-3.851563-1.535156-7.550781-4.761719-9.675781-3.21875-2.121094-7.339844-2.335938-10.761718-.554688l-21.667969 10.644531c-4.480469 2.171875-6.859375 7.15625-5.730469 12.003907 1.132812 4.847656 5.46875 8.261718 10.445312 8.230468zm0 0"/></svg>