<svg viewBox="-3 0 511 511.99883" xmlns="http://www.w3.org/2000/svg"><path d="m413.152344 147.359375c35.015625-23.039063 39.183594-59.464844 19.933594-92.410156 3.457031-7.617188 15.125-27.265625 45.316406-33.234375 4.09375-.808594 6.761718-4.785156 5.949218-8.882813-.808593-4.09375-4.789062-6.761719-8.882812-5.949219-38.339844 7.578126-52.71875 33.730469-56.746094 43.210938-.003906 0-.003906 0-.003906.003906h-.011719c-28.46875 13.175782-34.558593 32.800782-34.558593 47.175782 0 25.09375 18.21875 47.613281 18.992187 48.5625 2.433594 2.960937 6.707031 3.679687 10.011719 1.523437zm8.488281-81.871094c12.335937 23.625 10.714844 47.5-10.898437 64.945313-4.617188-7.191406-11.472657-20.074219-11.472657-33.160156 0-13.507813 7.332031-23.949219 22.371094-31.785157zm0 0"/><path d="m24.003906 256.585938c38.066406-23.898438 59.09375-59.367188 59.09375-105.328126 0-35.039062-25.273437-130.589843-26.339844-134.640624-1.65625-6.179688-9.75-7.632813-13.449218-2.46875-14.699219 20.441406-22.148438 41.3125-22.148438 62.015624 0 45.488282 35.304688 76.132813 46.515625 84.710938-.375 11.757812-5.082031 53.621094-51.707031 82.910156-3.539062 2.214844-4.605469 6.882813-2.390625 10.421875 2.230469 3.539063 6.898437 4.597657 10.425781 2.378907zm22.5-219.011719c6.460938 25.828125 18.074219 74.78125 20.867188 103.050781-30.515625-29.3125-40.644532-65.34375-20.867188-103.050781zm0 0"/><path d="m156.15625 129.757812c3.722656 0 6.808594-2.6875 7.4375-6.25.0625-.304687 1.324219-7.632812 1.324219-18.539062 0-27.652344-8.722657-93.210938-89.5-104.8867188-6.28125-.9179692-10.863281 5.9179688-7.550781 11.3945308 8.351562 13.785157 72.351562 118.28125 88.289062 118.28125zm-6.363281-24.789062v.242188c-17.246094-20.304688-43.378907-60.367188-59.75-86.566407 51.535156 15.101563 59.75 59.546875 59.75 86.324219zm0 0"/><path d="m80.6875 358.40625c-36.527344 20.636719-43.050781 56.730469-26.132812 90.851562-3.964844 7.371094-16.933594 26.179688-47.457032 30.09375-4.140625.53125-7.066406 4.320313-6.535156 8.460938s4.316406 7.070312 8.460938 6.539062c38.761718-4.972656 54.875-30.09375 59.535156-39.277343 1.070312-.929688 37.808594-10.824219 37.808594-48.382813 0-23.648437-15.152344-45.183594-15.796876-46.089844-2.25-3.152343-6.515624-4.101562-9.882812-2.195312zm-14 81.109375c-10.691406-24.367187-7.492188-48.113281 15.261719-64.0625 3.839843 6.984375 9.292969 19.042969 9.292969 31.238281 0 14.800782-8.042969 25.585938-24.554688 32.824219zm0 0"/><path d="m261.089844 210.007812c.296875.425782 1.261718 51.457032 54.265625 51.457032 16.460937 0 30.457031-5.058594 31.039062-5.28125 3.640625-1.332032 5.675781-5.191406 4.730469-8.941406-9.921875-39.339844-39.894531-55.976563-80.722656-49.207032-12.289063-11.722656-19.71875-30.804687-16.496094-53.714844.582031-4.136718-2.296875-7.960937-6.433594-8.539062-4.128906-.578125-7.960937 2.296875-8.539062 6.433594-3.972656 28.238281 5.570312 52.703125 22.15625 67.792968zm73.269531 33.957032c-4.789063 1.148437-11.625 2.378906-19.003906 2.378906-22.660157 0-35.394531-11.140625-38.761719-34.023438 26.804688-3.882812 48.4375 5.445313 57.765625 31.644532zm0 0"/><path d="m355.484375 403.675781c-.007813.011719-.011719.015625 0 0zm0 0"/><path d="m358.683594 399.066406c-2.253906 3.246094-3.113282 4.484375-3.199219 4.609375.117187-.167969 1.980469-2.855469 3.199219-4.609375zm0 0"/><path d="m491.683594 458.964844c-5.355469-3.640625-93.9375-63.847656-98.476563-66.929688 5.621094-9.148437 11.378907-13.234375 11.378907-22.558594 0-16.746093-20.539063-25.660156-23.789063-13.757812-1.097656 4.027344 1.277344 8.1875 5.304687 9.285156 3.050782.832032 4.332032 4.503906 2.546876 7.074219l-9.503907 13.699219c-.003906 0-.160156-.03125-.175781-.03125.046875.039062.089844.066406.128906.097656-10.917968 15.726562 20.863282-30.023438-29.796875 42.925781v.007813c-6.484375 8.4375-6.945312 12.347656-11.019531 12.347656-2.558594 0-4.578125-2.074219-4.578125-4.636719 0-2.6875 1.84375-3.46875 9.132813-14.59375 18.121093-26.113281 18.128906-26.117187 15.84375-22.828125 2.527343-3.640625 6.792968-9.789062 13.695312-19.734375 2.382812-3.429687 1.53125-8.140625-1.898438-10.523437-3.429687-2.378906-8.144531-1.527344-10.523437 1.898437l-.25.363281c0-.003906 0-.003906-.003906-.003906-134.339844-105.75-255.363281-270.132812-256.582031-271.804687-3.917969-5.359375-13.691407-3.75-13.691407 5.523437 0 11.5625 5.082031 74.761719 105.429688 183.546875 2.820312 3.0625 7.609375 3.265625 10.675781.433594 3.074219-2.832031 3.265625-7.621094.433594-10.6875-61.988282-67.199219-86.113282-115.851563-95.488282-144.320313 134.628907 171.828126 237.210938 246.417969 240.585938 249.761719l-11.484375 16.546875c-42.964844-34.183594-80.917969-67.902344-112.917969-100.324218-2.933594-2.960938-7.71875-2.992188-10.695312-.058594-2.964844 2.933594-2.992188 7.710937-.058594 10.683594 32.601562 33.035156 71.28125 67.382812 115.03125 102.152343-6.492188 10.472657-12.355469 14.535157-12.355469 23.96875 0 19.390625 24.988281 27.066407 35.941407 11.285157l5.59375-8.0625c88.140624 59.890624 98.019531 66.601562 98.890624 67.195312.003907.003906.011719.011719.035157.023438-.007813-.007813-.019531-.011719-.023438-.015626.023438.015626.042969.03125.050781.035157.003907.003906.007813.003906.007813.003906s-.003906 0-.003906-.003906c19.347656 13.132812 45.3125-.9375 45.3125-23.953125 0-9.292969-4.445313-18.425782-12.703125-24.03125zm-122.9375-31.683594 15.835937-22.816406c.101563.070312 8.625 5.863281 8.402344 5.710937l-15.996094 22.707031zm20.75 14.105469 15.992187-22.707031h.011719c5.402344 3.671874 3.332031 2.265624 8.730469 5.9375l-15.988281 22.703124zm21.25 14.4375 15.996094-22.707031 9.597656 6.511718-16 22.710938c-5.632813-3.824219-3.910156-2.65625-9.59375-6.515625zm22.105468 15.015625 15.996094-22.714844 9.421875 6.40625-16.003906 22.71875zm31.21875 21.230468c-5.753906-3.914062-3.539062-2.410156-9.292968-6.320312l16-22.714844c5.453125 3.703125 3.789062 2.574219 9.296875 6.316406zm15.621094 4.082032 9.570313-13.589844c.304687 10.5625-9.46875 13.515625-9.570313 13.589844zm0 0"/></svg>